<svg width="24" height="24" viewBox="0 0 24 24" fill="none" xmlns="http://www.w3.org/2000/svg">
<path d="M23.36 19.7734L13.33 9.18577L15.68 6.7078C15.7788 6.60214 15.859 6.46594 15.9145 6.30971C15.97 6.15348 15.9992 5.98139 16 5.80672C16 4.31309 15.5786 2.88064 14.8284 1.82449C14.0783 0.76833 13.0609 0.174988 12 0.174988C10.9391 0.174988 9.92172 0.76833 9.17157 1.82449C8.42143 2.88064 8 4.31309 8 5.80672C8 6.10545 8.08429 6.39194 8.23431 6.60317C8.38434 6.8144 8.58783 6.93307 8.8 6.93307C9.01217 6.93307 9.21566 6.8144 9.36569 6.60317C9.51571 6.39194 9.6 6.10545 9.6 5.80672C9.59957 4.95658 9.82676 4.13745 10.2363 3.51268C10.6458 2.88792 11.2075 2.50345 11.8094 2.43593C12.4113 2.36842 13.0092 2.62283 13.4838 3.14843C13.9584 3.67403 14.2748 4.43219 14.37 5.27171L11.53 8.27061L11.51 8.29877L0.64 19.7734C0.37135 20.0571 0.172907 20.4526 0.0727784 20.9039C-0.0273499 21.3552 -0.0240864 21.8394 0.0821067 22.2879C0.1883 22.7365 0.392039 23.1266 0.664464 23.4031C0.936888 23.6795 1.26419 23.8283 1.6 23.8283H22.4C22.7358 23.8283 23.0631 23.6795 23.3355 23.4031C23.608 23.1266 23.8117 22.7365 23.9179 22.2879C24.0241 21.8394 24.0274 21.3552 23.9272 20.9039C23.8271 20.4526 23.6287 20.0571 23.36 19.7734ZM1.6 21.5756L12 10.5937L22.4 21.5756H1.6Z" fill="#FFFFFF"/>
</svg>
